<svg xmlns="http://www.w3.org/2000/svg">
  <defs>
    <!-- Square - 01 -->
    <svg id="square" viewBox="0 0 478 478" fill="none">
      <path fill-rule="evenodd" clip-rule="evenodd" d="M95 29H383C416.689 29 444 56.3106 444 90V388C444 421.689 416.689 449 383 449H95C61.3106 449 34 421.689 34 388V90C34 56.3106 61.3106 29 95 29ZM95 30C61.8629 30 35 56.8629 35 90V388C35 421.137 61.8629 448 95 448H383C416.137 448 443 421.137 443 388V90C443 56.8629 416.137 30 383 30H95Z" stroke="none" fill="currentColor" />
    </svg>

    <!-- Square - 02 -->
    <svg id="square-2" viewBox="0 0 478 478" fill="none">
      <path fill-rule="evenodd" clip-rule="evenodd" d="M281.666 30.2514L446.813 195.399C470.635 219.221 470.635 257.844 446.813 281.666L281.666 446.814C257.844 470.635 219.221 470.636 195.399 446.814L30.2512 281.666C6.42921 257.844 6.4292 219.221 30.2512 195.399L195.399 30.2514C219.221 6.42947 257.844 6.42945 281.666 30.2514ZM280.959 30.9585C257.527 7.52708 219.537 7.5271 196.106 30.9586L30.9583 196.106C7.52682 219.538 7.52684 257.527 30.9583 280.959L196.106 446.106C219.537 469.538 257.527 469.538 280.959 446.106L446.106 280.959C469.538 257.527 469.538 219.538 446.106 196.106L280.959 30.9585Z" stroke="none" fill="currentColor" />
    </svg>

    <!-- Triangle - 01 -->
    <svg id="triangle" viewBox="0 0 478 478" fill="none">
      <path fill-rule="evenodd" clip-rule="evenodd" d="M69.7442 61.1968L407.861 61.1968C445.581 61.1968 469.156 102.03 450.296 134.697L281.238 427.515C262.378 460.181 215.227 460.181 196.367 427.515L27.3089 134.697C8.44882 102.03 32.0239 61.1968 69.7442 61.1968ZM69.7442 62.1968C32.7937 62.1968 9.69974 102.197 28.1749 134.197L197.233 427.015C215.709 459.015 261.897 459.015 280.372 427.015L449.43 134.197C467.905 102.197 444.811 62.1968 407.861 62.1968L69.7442 62.1968Z" stroke="none" fill="currentColor" />
    </svg>

    <!-- Triangle - 02 -->
    <svg id="triangle-2" viewBox="0 0 478 478" fill="none">
      <path fill-rule="evenodd" clip-rule="evenodd" d="M50 282.035L378.5 471.695C411.833 490.94 453.5 466.884 453.5 428.394L453.5 49.0746C453.5 10.5846 411.833 -13.4717 378.5 5.77334L50 195.433C16.6667 214.678 16.6666 262.79 50 282.035ZM51 280.303C19 261.828 19 215.64 51 197.165L379.5 7.50538C411.5 -10.9698 451.5 12.1242 451.5 49.0746L451.5 428.394C451.5 465.344 411.5 488.438 379.5 469.963L51 280.303Z" stroke="none" fill="currentColor" />
    </svg>

    <!-- Circle -->
    <svg id="circle" viewBox="0 0 478 478" fill="none">
      <path fill-rule="evenodd" clip-rule="evenodd" d="M392.832 392.832C307.735 477.929 169.765 477.929 84.668 392.832C-0.42922 307.735 -0.429349 169.765 84.6678 84.6678C169.765 -0.429349 307.735 -0.429338 392.832 84.6679C477.929 169.765 477.929 307.735 392.832 392.832ZM392.125 392.125C307.418 476.831 170.082 476.832 85.3751 392.125C0.6684 307.418 0.668266 170.082 85.3749 85.3749C170.082 0.668271 307.418 0.668282 392.125 85.375C476.832 170.082 476.831 307.418 392.125 392.125Z" stroke="none" fill="currentColor" />
    </svg>

    <!-- Dots - 01 -->
    <svg id="dots" viewBox="0 0 368 186" fill="none">
      <path fill-rule="evenodd" clip-rule="evenodd" d="M345 137.849C345 138.852 344.187 139.665 343.185 139.665C342.182 139.665 341.369 138.852 341.369 137.849C341.369 136.847 342.182 136.034 343.185 136.034C344.187 136.034 345 136.847 345 137.849ZM344.999 162.056C344.999 163.058 344.186 163.871 343.184 163.871C342.181 163.871 341.368 163.058 341.368 162.056C341.368 161.053 342.181 160.24 343.184 160.24C344.186 160.24 344.999 161.053 344.999 162.056ZM343.185 42.838C344.187 42.838 345 42.0252 345 41.0225C345 40.0199 344.187 39.207 343.185 39.207C342.182 39.207 341.369 40.0198 341.369 41.0225C341.369 42.0252 342.182 42.838 343.185 42.838ZM345 89.4356C345 90.4383 344.187 91.2511 343.185 91.2511C342.182 91.2511 341.369 90.4383 341.369 89.4356C341.369 88.4329 342.182 87.6201 343.185 87.6201C344.187 87.6201 345 88.4329 345 89.4356ZM343.185 115.458C344.187 115.458 345 114.645 345 113.643C345 112.64 344.187 111.827 343.185 111.827C342.182 111.827 341.369 112.64 341.369 113.643C341.369 114.645 342.182 115.458 343.185 115.458ZM345 16.816C345 17.8186 344.187 18.6315 343.185 18.6315C342.182 18.6315 341.369 17.8186 341.369 16.816C341.369 15.8133 342.182 15.0005 343.185 15.0005C344.187 15.0005 345 15.8133 345 16.816ZM343.185 67.0446C344.187 67.0446 345 66.2317 345 65.2291C345 64.2264 344.187 63.4136 343.185 63.4136C342.182 63.4136 341.369 64.2264 341.369 65.2291C341.369 66.2317 342.182 67.0446 343.185 67.0446ZM158.609 137.849C158.609 138.852 157.797 139.665 156.794 139.665C155.791 139.665 154.978 138.852 154.978 137.849C154.978 136.847 155.791 136.034 156.794 136.034C157.797 136.034 158.609 136.847 158.609 137.849ZM156.794 163.871C157.797 163.871 158.609 163.058 158.609 162.056C158.609 161.053 157.797 160.24 156.794 160.24C155.791 160.24 154.978 161.053 154.978 162.056C154.978 163.058 155.791 163.871 156.794 163.871ZM158.609 41.0225C158.609 42.0252 157.797 42.838 156.794 42.838C155.791 42.838 154.978 42.0252 154.978 41.0225C154.978 40.0198 155.791 39.207 156.794 39.207C157.797 39.207 158.609 40.0199 158.609 41.0225ZM156.794 91.2511C157.797 91.2511 158.609 90.4383 158.609 89.4356C158.609 88.4329 157.797 87.6201 156.794 87.6201C155.791 87.6201 154.978 88.4329 154.978 89.4356C154.978 90.4383 155.791 91.2511 156.794 91.2511ZM158.609 113.643C158.609 114.645 157.797 115.458 156.794 115.458C155.791 115.458 154.978 114.645 154.978 113.643C154.978 112.64 155.791 111.827 156.794 111.827C157.797 111.827 158.609 112.64 158.609 113.643ZM156.794 18.6315C157.797 18.6315 158.609 17.8186 158.609 16.816C158.609 15.8133 157.797 15.0005 156.794 15.0005C155.791 15.0005 154.978 15.8133 154.978 16.816C154.978 17.8186 155.791 18.6315 156.794 18.6315ZM158.609 65.2291C158.609 66.2317 157.797 67.0446 156.794 67.0446C155.791 67.0446 154.978 66.2317 154.978 65.2291C154.978 64.2264 155.791 63.4136 156.794 63.4136C157.797 63.4136 158.609 64.2264 158.609 65.2291ZM251.199 139.665C252.202 139.665 253.015 138.852 253.015 137.849C253.015 136.847 252.202 136.034 251.199 136.034C250.196 136.034 249.384 136.847 249.384 137.849C249.384 138.852 250.196 139.665 251.199 139.665ZM253.015 162.056C253.015 163.058 252.202 163.871 251.199 163.871C250.196 163.871 249.384 163.058 249.384 162.056C249.384 161.053 250.196 160.24 251.199 160.24C252.202 160.24 253.015 161.053 253.015 162.056ZM251.199 42.838C252.202 42.838 253.015 42.0252 253.015 41.0225C253.015 40.0199 252.202 39.207 251.199 39.207C250.196 39.207 249.384 40.0198 249.384 41.0225C249.384 42.0252 250.196 42.838 251.199 42.838ZM253.015 89.4356C253.015 90.4383 252.202 91.2511 251.199 91.2511C250.196 91.2511 249.384 90.4383 249.384 89.4356C249.384 88.4329 250.196 87.6201 251.199 87.6201C252.202 87.6201 253.015 88.4329 253.015 89.4356ZM251.199 115.458C252.202 115.458 253.015 114.645 253.015 113.643C253.015 112.64 252.202 111.827 251.199 111.827C250.196 111.827 249.384 112.64 249.384 113.643C249.384 114.645 250.196 115.458 251.199 115.458ZM253.015 16.816C253.015 17.8186 252.202 18.6315 251.199 18.6315C250.196 18.6315 249.384 17.8186 249.384 16.816C249.384 15.8133 250.196 15.0005 251.199 15.0005C252.202 15.0005 253.015 15.8133 253.015 16.816ZM251.199 67.0446C252.202 67.0446 253.015 66.2317 253.015 65.2291C253.015 64.2264 252.202 63.4136 251.199 63.4136C250.196 63.4136 249.384 64.2264 249.384 65.2291C249.384 66.2317 250.196 67.0446 251.199 67.0446ZM66.625 137.849C66.625 138.852 65.8122 139.665 64.8095 139.665C63.8068 139.665 62.994 138.852 62.994 137.849C62.994 136.847 63.8068 136.034 64.8095 136.034C65.8122 136.034 66.625 136.847 66.625 137.849ZM64.8085 163.871C65.8112 163.871 66.624 163.058 66.624 162.055C66.624 161.053 65.8112 160.24 64.8085 160.24C63.8058 160.24 62.993 161.053 62.993 162.055C62.993 163.058 63.8058 163.871 64.8085 163.871ZM66.625 41.0225C66.625 42.0252 65.8122 42.838 64.8095 42.838C63.8068 42.838 62.994 42.0252 62.994 41.0225C62.994 40.0198 63.8068 39.207 64.8095 39.207C65.8122 39.207 66.625 40.0199 66.625 41.0225ZM64.8095 91.2511C65.8122 91.2511 66.625 90.4383 66.625 89.4356C66.625 88.4329 65.8122 87.6201 64.8095 87.6201C63.8068 87.6201 62.994 88.4329 62.994 89.4356C62.994 90.4383 63.8068 91.2511 64.8095 91.2511ZM66.625 113.643C66.625 114.645 65.8122 115.458 64.8095 115.458C63.8068 115.458 62.994 114.645 62.994 113.643C62.994 112.64 63.8068 111.827 64.8095 111.827C65.8122 111.827 66.625 112.64 66.625 113.643ZM64.8095 18.6315C65.8122 18.6315 66.625 17.8186 66.625 16.816C66.625 15.8133 65.8122 15.0005 64.8095 15.0005C63.8068 15.0005 62.994 15.8133 62.994 16.816C62.994 17.8186 63.8068 18.6315 64.8095 18.6315ZM66.625 65.2291C66.625 66.2317 65.8122 67.0446 64.8095 67.0446C63.8068 67.0446 62.994 66.2317 62.994 65.2291C62.994 64.2264 63.8068 63.4136 64.8095 63.4136C65.8122 63.4136 66.625 64.2264 66.625 65.2291ZM297.192 139.665C298.195 139.665 299.008 138.852 299.008 137.849C299.008 136.847 298.195 136.034 297.192 136.034C296.19 136.034 295.377 136.847 295.377 137.849C295.377 138.852 296.19 139.665 297.192 139.665ZM299.008 162.056C299.008 163.058 298.195 163.871 297.192 163.871C296.19 163.871 295.377 163.058 295.377 162.056C295.377 161.053 296.19 160.24 297.192 160.24C298.195 160.24 299.008 161.053 299.008 162.056ZM297.192 42.838C298.195 42.838 299.008 42.0252 299.008 41.0225C299.008 40.0199 298.195 39.207 297.192 39.207C296.19 39.207 295.377 40.0198 295.377 41.0225C295.377 42.0252 296.19 42.838 297.192 42.838ZM299.008 89.4356C299.008 90.4383 298.195 91.2511 297.192 91.2511C296.19 91.2511 295.377 90.4383 295.377 89.4356C295.377 88.4329 296.19 87.6201 297.192 87.6201C298.195 87.6201 299.008 88.4329 299.008 89.4356ZM297.192 115.458C298.195 115.458 299.008 114.645 299.008 113.643C299.008 112.64 298.195 111.827 297.192 111.827C296.19 111.827 295.377 112.64 295.377 113.643C295.377 114.645 296.19 115.458 297.192 115.458ZM299.008 16.816C299.008 17.8186 298.195 18.6315 297.192 18.6315C296.19 18.6315 295.377 17.8186 295.377 16.816C295.377 15.8133 296.19 15.0005 297.192 15.0005C298.195 15.0005 299.008 15.8133 299.008 16.816ZM297.192 67.0446C298.195 67.0446 299.008 66.2317 299.008 65.2291C299.008 64.2264 298.195 63.4136 297.192 63.4136C296.19 63.4136 295.377 64.2264 295.377 65.2291C295.377 66.2317 296.19 67.0446 297.192 67.0446ZM112.616 137.849C112.616 138.852 111.803 139.665 110.801 139.665C109.798 139.665 108.985 138.852 108.985 137.849C108.985 136.847 109.798 136.034 110.801 136.034C111.803 136.034 112.616 136.847 112.616 137.849ZM110.801 163.871C111.803 163.871 112.616 163.058 112.616 162.056C112.616 161.053 111.803 160.24 110.801 160.24C109.798 160.24 108.985 161.053 108.985 162.056C108.985 163.058 109.798 163.871 110.801 163.871ZM112.616 41.0225C112.616 42.0252 111.803 42.838 110.801 42.838C109.798 42.838 108.985 42.0252 108.985 41.0225C108.985 40.0198 109.798 39.207 110.801 39.207C111.803 39.207 112.616 40.0199 112.616 41.0225ZM110.801 91.2516C111.803 91.2516 112.616 90.4388 112.616 89.4361C112.616 88.4334 111.803 87.6206 110.801 87.6206C109.798 87.6206 108.985 88.4334 108.985 89.4361C108.985 90.4388 109.798 91.2516 110.801 91.2516ZM112.616 113.643C112.616 114.645 111.803 115.458 110.801 115.458C109.798 115.458 108.985 114.645 108.985 113.643C108.985 112.64 109.798 111.827 110.801 111.827C111.803 111.827 112.616 112.64 112.616 113.643ZM110.801 18.6315C111.803 18.6315 112.616 17.8186 112.616 16.816C112.616 15.8133 111.803 15.0005 110.801 15.0005C109.798 15.0005 108.985 15.8133 108.985 16.816C108.985 17.8186 109.798 18.6315 110.801 18.6315ZM112.616 65.2291C112.616 66.2317 111.803 67.0446 110.801 67.0446C109.798 67.0446 108.985 66.2317 108.985 65.2291C108.985 64.2264 109.798 63.4136 110.801 63.4136C111.803 63.4136 112.616 64.2264 112.616 65.2291ZM205.207 139.665C206.21 139.665 207.022 138.852 207.022 137.849C207.022 136.847 206.21 136.034 205.207 136.034C204.204 136.034 203.391 136.847 203.391 137.849C203.391 138.852 204.204 139.665 205.207 139.665ZM207.022 162.056C207.022 163.058 206.21 163.871 205.207 163.871C204.204 163.871 203.391 163.058 203.391 162.056C203.391 161.053 204.204 160.24 205.207 160.24C206.21 160.24 207.022 161.053 207.022 162.056ZM205.207 42.838C206.21 42.838 207.022 42.0252 207.022 41.0225C207.022 40.0199 206.21 39.207 205.207 39.207C204.204 39.207 203.391 40.0198 203.391 41.0225C203.391 42.0252 204.204 42.838 205.207 42.838ZM207.022 89.4356C207.022 90.4383 206.21 91.2511 205.207 91.2511C204.204 91.2511 203.391 90.4383 203.391 89.4356C203.391 88.4329 204.204 87.6201 205.207 87.6201C206.21 87.6201 207.022 88.4329 207.022 89.4356ZM205.207 115.458C206.21 115.458 207.022 114.645 207.022 113.643C207.022 112.64 206.21 111.827 205.207 111.827C204.204 111.827 203.391 112.64 203.391 113.643C203.391 114.645 204.204 115.458 205.207 115.458ZM207.022 16.816C207.022 17.8186 206.21 18.6315 205.207 18.6315C204.204 18.6315 203.391 17.8186 203.391 16.816C203.391 15.8133 204.204 15.0005 205.207 15.0005C206.21 15.0005 207.022 15.8133 207.022 16.816ZM205.207 67.0446C206.21 67.0446 207.022 66.2317 207.022 65.2291C207.022 64.2264 206.21 63.4136 205.207 63.4136C204.204 63.4136 203.391 64.2264 203.391 65.2291C203.391 66.2317 204.204 67.0446 205.207 67.0446ZM20.6318 137.849C20.6318 138.852 19.819 139.665 18.8163 139.665C17.8137 139.665 17.0008 138.852 17.0008 137.849C17.0008 136.847 17.8137 136.034 18.8163 136.034C19.819 136.034 20.6318 136.847 20.6318 137.849ZM18.8154 163.871C19.818 163.871 20.6309 163.058 20.6309 162.055C20.6309 161.053 19.818 160.24 18.8154 160.24C17.8127 160.24 16.9999 161.053 16.9999 162.055C16.9999 163.058 17.8127 163.871 18.8154 163.871ZM20.6318 41.0225C20.6318 42.0252 19.819 42.838 18.8163 42.838C17.8137 42.838 17.0009 42.0252 17.0009 41.0225C17.0009 40.0198 17.8137 39.207 18.8163 39.207C19.819 39.207 20.6318 40.0199 20.6318 41.0225ZM18.8163 91.2511C19.819 91.2511 20.6318 90.4383 20.6318 89.4356C20.6318 88.4329 19.819 87.6201 18.8163 87.6201C17.8137 87.6201 17.0009 88.4329 17.0009 89.4356C17.0009 90.4383 17.8137 91.2511 18.8163 91.2511ZM20.6318 113.643C20.6318 114.645 19.819 115.458 18.8163 115.458C17.8137 115.458 17.0009 114.645 17.0009 113.643C17.0009 112.64 17.8137 111.827 18.8163 111.827C19.819 111.827 20.6318 112.64 20.6318 113.643ZM18.8163 18.6315C19.819 18.6315 20.6318 17.8186 20.6318 16.816C20.6318 15.8133 19.819 15.0005 18.8163 15.0005C17.8137 15.0005 17.0009 15.8133 17.0009 16.816C17.0009 17.8186 17.8137 18.6315 18.8163 18.6315ZM20.6318 65.2291C20.6318 66.2317 19.819 67.0446 18.8163 67.0446C17.8137 67.0446 17.0009 66.2317 17.0009 65.2291C17.0009 64.2264 17.8137 63.4136 18.8163 63.4136C19.819 63.4136 20.6318 64.2264 20.6318 65.2291ZM320.188 139.665C321.191 139.665 322.004 138.852 322.004 137.849C322.004 136.847 321.191 136.034 320.188 136.034C319.186 136.034 318.373 136.847 318.373 137.849C318.373 138.852 319.186 139.665 320.188 139.665ZM322.003 162.056C322.003 163.058 321.19 163.871 320.187 163.871C319.185 163.871 318.372 163.058 318.372 162.056C318.372 161.053 319.185 160.24 320.187 160.24C321.19 160.24 322.003 161.053 322.003 162.056ZM320.188 42.838C321.191 42.838 322.004 42.0252 322.004 41.0225C322.004 40.0199 321.191 39.207 320.188 39.207C319.186 39.207 318.373 40.0199 318.373 41.0225C318.373 42.0252 319.186 42.838 320.188 42.838ZM322.004 89.4356C322.004 90.4383 321.191 91.2511 320.188 91.2511C319.186 91.2511 318.373 90.4383 318.373 89.4356C318.373 88.4329 319.186 87.6201 320.188 87.6201C321.191 87.6201 322.004 88.4329 322.004 89.4356ZM320.188 115.458C321.191 115.458 322.004 114.645 322.004 113.643C322.004 112.64 321.191 111.827 320.188 111.827C319.186 111.827 318.373 112.64 318.373 113.643C318.373 114.645 319.186 115.458 320.188 115.458ZM322.004 16.816C322.004 17.8186 321.191 18.6315 320.188 18.6315C319.186 18.6315 318.373 17.8186 318.373 16.816C318.373 15.8133 319.186 15.0005 320.188 15.0005C321.191 15.0005 322.004 15.8133 322.004 16.816ZM320.188 67.0446C321.191 67.0446 322.004 66.2317 322.004 65.2291C322.004 64.2264 321.191 63.4136 320.188 63.4136C319.186 63.4136 318.373 64.2264 318.373 65.2291C318.373 66.2317 319.186 67.0446 320.188 67.0446ZM135.613 137.849C135.613 138.852 134.8 139.665 133.798 139.665C132.795 139.665 131.982 138.852 131.982 137.849C131.982 136.847 132.795 136.034 133.798 136.034C134.8 136.034 135.613 136.847 135.613 137.849ZM133.798 163.871C134.8 163.871 135.613 163.058 135.613 162.056C135.613 161.053 134.8 160.24 133.798 160.24C132.795 160.24 131.982 161.053 131.982 162.056C131.982 163.058 132.795 163.871 133.798 163.871ZM135.613 41.0225C135.613 42.0252 134.8 42.838 133.798 42.838C132.795 42.838 131.982 42.0252 131.982 41.0225C131.982 40.0199 132.795 39.207 133.798 39.207C134.8 39.207 135.613 40.0199 135.613 41.0225ZM133.798 91.2511C134.8 91.2511 135.613 90.4383 135.613 89.4356C135.613 88.4329 134.8 87.6201 133.798 87.6201C132.795 87.6201 131.982 88.4329 131.982 89.4356C131.982 90.4383 132.795 91.2511 133.798 91.2511ZM135.613 113.643C135.613 114.645 134.8 115.458 133.798 115.458C132.795 115.458 131.982 114.645 131.982 113.643C131.982 112.64 132.795 111.827 133.798 111.827C134.8 111.827 135.613 112.64 135.613 113.643ZM133.798 18.6315C134.8 18.6315 135.613 17.8186 135.613 16.816C135.613 15.8133 134.8 15.0005 133.798 15.0005C132.795 15.0005 131.982 15.8133 131.982 16.816C131.982 17.8186 132.795 18.6315 133.798 18.6315ZM135.613 65.2291C135.613 66.2317 134.8 67.0446 133.798 67.0446C132.795 67.0446 131.982 66.2317 131.982 65.2291C131.982 64.2264 132.795 63.4136 133.798 63.4136C134.8 63.4136 135.613 64.2264 135.613 65.2291ZM228.203 139.664C229.206 139.664 230.019 138.851 230.019 137.848C230.019 136.846 229.206 136.033 228.203 136.033C227.2 136.033 226.388 136.846 226.388 137.848C226.388 138.851 227.2 139.664 228.203 139.664ZM230.019 162.055C230.019 163.058 229.206 163.871 228.203 163.871C227.2 163.871 226.388 163.058 226.388 162.055C226.388 161.053 227.2 160.24 228.203 160.24C229.206 160.24 230.019 161.053 230.019 162.055ZM228.203 42.838C229.206 42.838 230.019 42.0252 230.019 41.0225C230.019 40.0199 229.206 39.207 228.203 39.207C227.2 39.207 226.388 40.0199 226.388 41.0225C226.388 42.0252 227.2 42.838 228.203 42.838ZM230.019 89.4356C230.019 90.4383 229.206 91.2511 228.203 91.2511C227.2 91.2511 226.388 90.4383 226.388 89.4356C226.388 88.4329 227.2 87.6201 228.203 87.6201C229.206 87.6201 230.019 88.4329 230.019 89.4356ZM228.203 115.458C229.206 115.458 230.019 114.645 230.019 113.642C230.019 112.639 229.206 111.827 228.203 111.827C227.2 111.827 226.388 112.639 226.388 113.642C226.388 114.645 227.2 115.458 228.203 115.458ZM230.019 16.8155C230.019 17.8182 229.206 18.631 228.203 18.631C227.2 18.631 226.388 17.8182 226.388 16.8155C226.388 15.8128 227.2 15 228.203 15C229.206 15 230.019 15.8128 230.019 16.8155ZM228.203 67.0446C229.206 67.0446 230.019 66.2317 230.019 65.2291C230.019 64.2264 229.206 63.4136 228.203 63.4136C227.2 63.4136 226.388 64.2264 226.388 65.2291C226.388 66.2317 227.2 67.0446 228.203 67.0446ZM43.6279 137.849C43.6279 138.852 42.8151 139.665 41.8124 139.665C40.8097 139.665 39.9969 138.852 39.9969 137.849C39.9969 136.847 40.8097 136.034 41.8124 136.034C42.8151 136.034 43.6279 136.847 43.6279 137.849ZM41.8115 163.871C42.8141 163.871 43.6269 163.058 43.6269 162.055C43.6269 161.053 42.8141 160.24 41.8115 160.24C40.8088 160.24 39.996 161.053 39.996 162.055C39.996 163.058 40.8088 163.871 41.8115 163.871ZM43.6279 41.0225C43.6279 42.0252 42.8151 42.838 41.8124 42.838C40.8098 42.838 39.9969 42.0252 39.9969 41.0225C39.9969 40.0198 40.8098 39.207 41.8124 39.207C42.8151 39.207 43.6279 40.0199 43.6279 41.0225ZM41.8124 91.2511C42.8151 91.2511 43.6279 90.4383 43.6279 89.4356C43.6279 88.4329 42.8151 87.6201 41.8124 87.6201C40.8098 87.6201 39.9969 88.4329 39.9969 89.4356C39.9969 90.4383 40.8098 91.2511 41.8124 91.2511ZM43.6279 113.643C43.6279 114.645 42.8151 115.458 41.8124 115.458C40.8097 115.458 39.9969 114.645 39.9969 113.643C39.9969 112.64 40.8097 111.827 41.8124 111.827C42.8151 111.827 43.6279 112.64 43.6279 113.643ZM41.8124 18.6315C42.8151 18.6315 43.6279 17.8186 43.6279 16.816C43.6279 15.8133 42.8151 15.0005 41.8124 15.0005C40.8098 15.0005 39.9969 15.8133 39.9969 16.816C39.9969 17.8186 40.8098 18.6315 41.8124 18.6315ZM43.6279 65.2291C43.6279 66.2317 42.8151 67.0446 41.8124 67.0446C40.8098 67.0446 39.9969 66.2317 39.9969 65.2291C39.9969 64.2264 40.8098 63.4136 41.8124 63.4136C42.8151 63.4136 43.6279 64.2264 43.6279 65.2291ZM274.196 139.665C275.199 139.665 276.012 138.852 276.012 137.849C276.012 136.847 275.199 136.034 274.196 136.034C273.194 136.034 272.381 136.847 272.381 137.849C272.381 138.852 273.194 139.665 274.196 139.665ZM276.011 162.056C276.011 163.058 275.198 163.871 274.195 163.871C273.193 163.871 272.38 163.058 272.38 162.056C272.38 161.053 273.193 160.24 274.195 160.24C275.198 160.24 276.011 161.053 276.011 162.056ZM274.196 42.838C275.199 42.838 276.012 42.0252 276.012 41.0225C276.012 40.0199 275.199 39.207 274.196 39.207C273.194 39.207 272.381 40.0199 272.381 41.0225C272.381 42.0252 273.194 42.838 274.196 42.838ZM276.012 89.4356C276.012 90.4383 275.199 91.2511 274.196 91.2511C273.194 91.2511 272.381 90.4383 272.381 89.4356C272.381 88.4329 273.194 87.6201 274.196 87.6201C275.199 87.6201 276.012 88.4329 276.012 89.4356ZM274.196 115.458C275.199 115.458 276.012 114.645 276.012 113.643C276.012 112.64 275.199 111.827 274.196 111.827C273.194 111.827 272.381 112.64 272.381 113.643C272.381 114.645 273.194 115.458 274.196 115.458ZM276.012 16.816C276.012 17.8186 275.199 18.6315 274.196 18.6315C273.194 18.6315 272.381 17.8186 272.381 16.816C272.381 15.8133 273.194 15.0005 274.196 15.0005C275.199 15.0005 276.012 15.8133 276.012 16.816ZM274.196 67.0446C275.199 67.0446 276.012 66.2317 276.012 65.2291C276.012 64.2264 275.199 63.4136 274.196 63.4136C273.194 63.4136 272.381 64.2264 272.381 65.2291C272.381 66.2317 273.194 67.0446 274.196 67.0446ZM89.6211 137.849C89.6211 138.852 88.8083 139.665 87.8056 139.665C86.8029 139.665 85.9901 138.852 85.9901 137.849C85.9901 136.847 86.8029 136.034 87.8056 136.034C88.8083 136.034 89.6211 136.847 89.6211 137.849ZM87.8056 163.871C88.8083 163.871 89.6211 163.058 89.6211 162.055C89.6211 161.053 88.8083 160.24 87.8056 160.24C86.8029 160.24 85.9901 161.053 85.9901 162.055C85.9901 163.058 86.8029 163.871 87.8056 163.871ZM89.6211 41.0225C89.6211 42.0252 88.8083 42.838 87.8056 42.838C86.8029 42.838 85.9901 42.0252 85.9901 41.0225C85.9901 40.0198 86.8029 39.207 87.8056 39.207C88.8083 39.207 89.6211 40.0199 89.6211 41.0225ZM87.8056 91.2511C88.8083 91.2511 89.6211 90.4383 89.6211 89.4356C89.6211 88.4329 88.8083 87.6201 87.8056 87.6201C86.8029 87.6201 85.9901 88.4329 85.9901 89.4356C85.9901 90.4383 86.8029 91.2511 87.8056 91.2511ZM89.6211 113.643C89.6211 114.645 88.8083 115.458 87.8056 115.458C86.8029 115.458 85.9901 114.645 85.9901 113.643C85.9901 112.64 86.8029 111.827 87.8056 111.827C88.8083 111.827 89.6211 112.64 89.6211 113.643ZM87.8056 18.6315C88.8083 18.6315 89.6211 17.8186 89.6211 16.816C89.6211 15.8133 88.8083 15.0005 87.8056 15.0005C86.8029 15.0005 85.9901 15.8133 85.9901 16.816C85.9901 17.8186 86.8029 18.6315 87.8056 18.6315ZM89.6211 65.2291C89.6211 66.2317 88.8083 67.0446 87.8056 67.0446C86.8029 67.0446 85.9901 66.2317 85.9901 65.2291C85.9901 64.2264 86.8029 63.4136 87.8056 63.4136C88.8083 63.4136 89.6211 64.2264 89.6211 65.2291ZM182.211 139.665C183.214 139.665 184.026 138.852 184.026 137.849C184.026 136.847 183.214 136.034 182.211 136.034C181.208 136.034 180.395 136.847 180.395 137.849C180.395 138.852 181.208 139.665 182.211 139.665ZM184.025 162.056C184.025 163.058 183.213 163.871 182.21 163.871C181.207 163.871 180.394 163.058 180.394 162.056C180.394 161.053 181.207 160.24 182.21 160.24C183.213 160.24 184.025 161.053 184.025 162.056ZM182.211 42.838C183.214 42.838 184.026 42.0252 184.026 41.0225C184.026 40.0199 183.214 39.207 182.211 39.207C181.208 39.207 180.395 40.0199 180.395 41.0225C180.395 42.0252 181.208 42.838 182.211 42.838ZM184.026 89.4356C184.026 90.4383 183.214 91.2511 182.211 91.2511C181.208 91.2511 180.395 90.4383 180.395 89.4356C180.395 88.4329 181.208 87.6201 182.211 87.6201C183.214 87.6201 184.026 88.4329 184.026 89.4356ZM182.211 115.458C183.214 115.458 184.026 114.645 184.026 113.643C184.026 112.64 183.214 111.827 182.211 111.827C181.208 111.827 180.395 112.64 180.395 113.643C180.395 114.645 181.208 115.458 182.211 115.458ZM184.026 16.816C184.026 17.8186 183.214 18.6315 182.211 18.6315C181.208 18.6315 180.395 17.8186 180.395 16.816C180.395 15.8133 181.208 15.0005 182.211 15.0005C183.214 15.0005 184.026 15.8133 184.026 16.816ZM182.211 67.0446C183.214 67.0446 184.026 66.2317 184.026 65.2291C184.026 64.2264 183.214 63.4136 182.211 63.4136C181.208 63.4136 180.395 64.2264 180.395 65.2291C180.395 66.2317 181.208 67.0446 182.211 67.0446Z" stroke="none" fill="currentColor" />
    </svg>

    <!-- Dots - 02 -->
    <svg id="dots-2" viewBox="0 0 186 368" fill="none">
      <path fill-rule="evenodd" clip-rule="evenodd" d="M48.1513 345C47.1486 345 46.3358 344.187 46.3358 343.184C46.3358 342.182 47.1486 341.369 48.1513 341.369C49.154 341.369 49.9668 342.182 49.9668 343.184C49.9668 344.187 49.154 345 48.1513 345ZM23.9443 345C22.9416 345 22.1288 344.187 22.1288 343.184C22.1288 342.181 22.9416 341.369 23.9443 341.369C24.9469 341.369 25.7598 342.181 25.7598 343.184C25.7598 344.187 24.9469 345 23.9443 345ZM143.162 343.184C143.162 344.187 143.975 345 144.977 345C145.98 345 146.793 344.187 146.793 343.184C146.793 342.182 145.98 341.369 144.977 341.369C143.975 341.369 143.162 342.182 143.162 343.184ZM96.5644 345C95.5617 345 94.7489 344.187 94.7489 343.184C94.7489 342.182 95.5617 341.369 96.5644 341.369C97.5671 341.369 98.3799 342.182 98.3799 343.184C98.3799 344.187 97.5671 345 96.5644 345ZM70.5419 343.184C70.5419 344.187 71.3547 345 72.3574 345C73.36 345 74.1729 344.187 74.1729 343.184C74.1729 342.182 73.36 341.369 72.3574 341.369C71.3547 341.369 70.5419 342.182 70.5419 343.184ZM169.184 345C168.181 345 167.368 344.187 167.368 343.184C167.368 342.182 168.181 341.369 169.184 341.369C170.186 341.369 170.999 342.182 170.999 343.184C170.999 344.187 170.186 345 169.184 345ZM118.955 343.184C118.955 344.187 119.768 345 120.77 345C121.773 345 122.586 344.187 122.586 343.184C122.586 342.182 121.773 341.369 120.77 341.369C119.768 341.369 118.955 342.182 118.955 343.184ZM48.1513 158.609C47.1486 158.609 46.3358 157.796 46.3358 156.794C46.3358 155.791 47.1486 154.978 48.1513 154.978C49.154 154.978 49.9668 155.791 49.9668 156.794C49.9668 157.796 49.154 158.609 48.1513 158.609ZM22.1288 156.794C22.1288 157.796 22.9416 158.609 23.9443 158.609C24.9469 158.609 25.7598 157.796 25.7598 156.794C25.7598 155.791 24.9469 154.978 23.9443 154.978C22.9416 154.978 22.1288 155.791 22.1288 156.794ZM144.977 158.609C143.975 158.609 143.162 157.796 143.162 156.794C143.162 155.791 143.975 154.978 144.977 154.978C145.98 154.978 146.793 155.791 146.793 156.794C146.793 157.796 145.98 158.609 144.977 158.609ZM94.7489 156.794C94.7489 157.796 95.5617 158.609 96.5644 158.609C97.5671 158.609 98.3799 157.796 98.3799 156.794C98.3799 155.791 97.5671 154.978 96.5644 154.978C95.5617 154.978 94.7489 155.791 94.7489 156.794ZM72.3574 158.609C71.3547 158.609 70.5419 157.796 70.5419 156.794C70.5419 155.791 71.3547 154.978 72.3574 154.978C73.36 154.978 74.1729 155.791 74.1729 156.794C74.1729 157.796 73.36 158.609 72.3574 158.609ZM167.368 156.794C167.368 157.796 168.181 158.609 169.184 158.609C170.186 158.609 170.999 157.796 170.999 156.794C170.999 155.791 170.186 154.978 169.184 154.978C168.181 154.978 167.368 155.791 167.368 156.794ZM120.77 158.609C119.768 158.609 118.955 157.796 118.955 156.794C118.955 155.791 119.768 154.978 120.77 154.978C121.773 154.978 122.586 155.791 122.586 156.794C122.586 157.796 121.773 158.609 120.77 158.609ZM46.3358 251.2C46.3358 252.202 47.1486 253.015 48.1513 253.015C49.154 253.015 49.9668 252.202 49.9668 251.2C49.9668 250.197 49.154 249.384 48.1513 249.384C47.1486 249.384 46.3358 250.197 46.3358 251.2ZM23.9443 253.015C22.9416 253.015 22.1288 252.202 22.1288 251.199C22.1288 250.197 22.9416 249.384 23.9443 249.384C24.9469 249.384 25.7598 250.197 25.7598 251.199C25.7598 252.202 24.9469 253.015 23.9443 253.015ZM143.162 251.2C143.162 252.202 143.975 253.015 144.977 253.015C145.98 253.015 146.793 252.202 146.793 251.2C146.793 250.197 145.98 249.384 144.977 249.384C143.975 249.384 143.162 250.197 143.162 251.2ZM96.5644 253.015C95.5617 253.015 94.7489 252.202 94.7489 251.2C94.7489 250.197 95.5617 249.384 96.5644 249.384C97.5671 249.384 98.3799 250.197 98.3799 251.2C98.3799 252.202 97.5671 253.015 96.5644 253.015ZM70.5419 251.2C70.5419 252.202 71.3547 253.015 72.3574 253.015C73.36 253.015 74.1729 252.202 74.1729 251.2C74.1729 250.197 73.36 249.384 72.3574 249.384C71.3547 249.384 70.5419 250.197 70.5419 251.2ZM169.184 253.015C168.181 253.015 167.368 252.202 167.368 251.2C167.368 250.197 168.181 249.384 169.184 249.384C170.186 249.384 170.999 250.197 170.999 251.2C170.999 252.202 170.186 253.015 169.184 253.015ZM118.955 251.2C118.955 252.202 119.768 253.015 120.77 253.015C121.773 253.015 122.586 252.202 122.586 251.2C122.586 250.197 121.773 249.384 120.77 249.384C119.768 249.384 118.955 250.197 118.955 251.2ZM48.1513 66.6245C47.1486 66.6245 46.3358 65.8117 46.3358 64.809C46.3358 63.8063 47.1486 62.9935 48.1513 62.9935C49.154 62.9935 49.9668 63.8063 49.9668 64.809C49.9668 65.8117 49.154 66.6245 48.1513 66.6245ZM22.1288 64.8083C22.1288 65.8109 22.9416 66.6238 23.9443 66.6238C24.9469 66.6238 25.7598 65.8109 25.7598 64.8083C25.7598 63.8056 24.9469 62.9928 23.9443 62.9928C22.9416 62.9928 22.1288 63.8056 22.1288 64.8083ZM144.977 66.6245C143.975 66.6245 143.162 65.8117 143.162 64.809C143.162 63.8063 143.975 62.9935 144.977 62.9935C145.98 62.9935 146.793 63.8063 146.793 64.809C146.793 65.8117 145.98 66.6245 144.977 66.6245ZM94.7489 64.809C94.7489 65.8117 95.5617 66.6245 96.5644 66.6245C97.5671 66.6245 98.3799 65.8117 98.3799 64.809C98.3799 63.8063 97.5671 62.9935 96.5644 62.9935C95.5617 62.9935 94.7489 63.8063 94.7489 64.809ZM72.3574 66.6245C71.3547 66.6245 70.5419 65.8117 70.5419 64.809C70.5419 63.8063 71.3547 62.9935 72.3574 62.9935C73.36 62.9935 74.1729 63.8063 74.1729 64.809C74.1729 65.8117 73.36 66.6245 72.3574 66.6245ZM167.369 64.809C167.369 65.8117 168.182 66.6245 169.185 66.6245C170.187 66.6245 171 65.8117 171 64.809C171 63.8063 170.187 62.9935 169.185 62.9935C168.182 62.9935 167.369 63.8063 167.369 64.809ZM120.77 66.6245C119.768 66.6245 118.955 65.8117 118.955 64.809C118.955 63.8063 119.768 62.9935 120.77 62.9935C121.773 62.9935 122.586 63.8063 122.586 64.809C122.586 65.8117 121.773 66.6245 120.77 66.6245ZM46.3358 297.192C46.3358 298.195 47.1486 299.008 48.1513 299.008C49.154 299.008 49.9668 298.195 49.9668 297.192C49.9668 296.19 49.154 295.377 48.1513 295.377C47.1486 295.377 46.3358 296.19 46.3358 297.192ZM23.9443 299.008C22.9416 299.008 22.1288 298.195 22.1288 297.192C22.1288 296.189 22.9416 295.377 23.9443 295.377C24.9469 295.377 25.7598 296.189 25.7598 297.192C25.7598 298.195 24.9469 299.008 23.9443 299.008ZM143.162 297.192C143.162 298.195 143.975 299.008 144.977 299.008C145.98 299.008 146.793 298.195 146.793 297.192C146.793 296.19 145.98 295.377 144.977 295.377C143.975 295.377 143.162 296.19 143.162 297.192ZM96.5644 299.008C95.5617 299.008 94.7489 298.195 94.7489 297.192C94.7489 296.19 95.5617 295.377 96.5644 295.377C97.5671 295.377 98.3799 296.19 98.3799 297.192C98.3799 298.195 97.5671 299.008 96.5644 299.008ZM70.5419 297.192C70.5419 298.195 71.3547 299.008 72.3574 299.008C73.36 299.008 74.1729 298.195 74.1729 297.192C74.1729 296.19 73.36 295.377 72.3574 295.377C71.3547 295.377 70.5419 296.19 70.5419 297.192ZM169.184 299.008C168.181 299.008 167.368 298.195 167.368 297.192C167.368 296.19 168.181 295.377 169.184 295.377C170.186 295.377 170.999 296.19 170.999 297.192C170.999 298.195 170.186 299.008 169.184 299.008ZM118.955 297.192C118.955 298.195 119.768 299.008 120.77 299.008C121.773 299.008 122.586 298.195 122.586 297.192C122.586 296.19 121.773 295.377 120.77 295.377C119.768 295.377 118.955 296.19 118.955 297.192ZM48.1513 112.616C47.1486 112.616 46.3358 111.804 46.3358 110.801C46.3358 109.798 47.1486 108.985 48.1513 108.985C49.154 108.985 49.9668 109.798 49.9668 110.801C49.9668 111.804 49.154 112.616 48.1513 112.616ZM22.1288 110.8C22.1288 111.803 22.9416 112.616 23.9443 112.616C24.947 112.616 25.7598 111.803 25.7598 110.8C25.7598 109.798 24.947 108.985 23.9443 108.985C22.9416 108.985 22.1288 109.798 22.1288 110.8ZM144.977 112.616C143.975 112.616 143.162 111.804 143.162 110.801C143.162 109.798 143.975 108.985 144.977 108.985C145.98 108.985 146.793 109.798 146.793 110.801C146.793 111.804 145.98 112.616 144.977 112.616ZM94.7489 110.801C94.7489 111.804 95.5617 112.616 96.5644 112.616C97.5671 112.616 98.3799 111.804 98.3799 110.801C98.3799 109.798 97.5671 108.985 96.5644 108.985C95.5617 108.985 94.7489 109.798 94.7489 110.801ZM72.3574 112.616C71.3547 112.616 70.5419 111.804 70.5419 110.801C70.5419 109.798 71.3547 108.985 72.3574 108.985C73.36 108.985 74.1729 109.798 74.1729 110.801C74.1729 111.804 73.36 112.616 72.3574 112.616ZM167.368 110.801C167.368 111.804 168.181 112.616 169.184 112.616C170.186 112.616 170.999 111.804 170.999 110.801C170.999 109.798 170.186 108.985 169.184 108.985C168.181 108.985 167.368 109.798 167.368 110.801ZM120.77 112.616C119.768 112.616 118.955 111.804 118.955 110.801C118.955 109.798 119.768 108.985 120.77 108.985C121.773 108.985 122.586 109.798 122.586 110.801C122.586 111.804 121.773 112.616 120.77 112.616ZM46.3358 205.207C46.3358 206.21 47.1486 207.023 48.1513 207.023C49.154 207.023 49.9668 206.21 49.9668 205.207C49.9668 204.205 49.154 203.392 48.1513 203.392C47.1486 203.392 46.3358 204.205 46.3358 205.207ZM23.9443 207.022C22.9416 207.022 22.1288 206.21 22.1288 205.207C22.1288 204.204 22.9416 203.391 23.9443 203.391C24.9469 203.391 25.7598 204.204 25.7598 205.207C25.7598 206.21 24.9469 207.022 23.9443 207.022ZM143.162 205.207C143.162 206.21 143.975 207.023 144.977 207.023C145.98 207.023 146.793 206.21 146.793 205.207C146.793 204.205 145.98 203.392 144.977 203.392C143.975 203.392 143.162 204.205 143.162 205.207ZM96.5644 207.023C95.5617 207.023 94.7489 206.21 94.7489 205.207C94.7489 204.205 95.5617 203.392 96.5644 203.392C97.5671 203.392 98.3799 204.205 98.3799 205.207C98.3799 206.21 97.5671 207.023 96.5644 207.023ZM70.5419 205.207C70.5419 206.21 71.3547 207.023 72.3574 207.023C73.36 207.023 74.1729 206.21 74.1729 205.207C74.1729 204.205 73.36 203.392 72.3574 203.392C71.3547 203.392 70.5419 204.205 70.5419 205.207ZM169.184 207.023C168.181 207.023 167.368 206.21 167.368 205.207C167.368 204.205 168.181 203.392 169.184 203.392C170.186 203.392 170.999 204.205 170.999 205.207C170.999 206.21 170.186 207.023 169.184 207.023ZM118.955 205.207C118.955 206.21 119.768 207.023 120.77 207.023C121.773 207.023 122.586 206.21 122.586 205.207C122.586 204.205 121.773 203.392 120.77 203.392C119.768 203.392 118.955 204.205 118.955 205.207ZM48.1513 20.6316C47.1486 20.6316 46.3358 19.8187 46.3358 18.8161C46.3358 17.8134 47.1486 17.0006 48.1513 17.0006C49.154 17.0006 49.9668 17.8134 49.9668 18.8161C49.9668 19.8187 49.154 20.6316 48.1513 20.6316ZM22.1288 18.8156C22.1288 19.8183 22.9416 20.6311 23.9443 20.6311C24.9469 20.6311 25.7598 19.8183 25.7598 18.8156C25.7598 17.8129 24.9469 17.0001 23.9443 17.0001C22.9416 17.0001 22.1288 17.8129 22.1288 18.8156ZM144.977 20.6316C143.975 20.6316 143.162 19.8188 143.162 18.8161C143.162 17.8134 143.975 17.0006 144.977 17.0006C145.98 17.0006 146.793 17.8134 146.793 18.8161C146.793 19.8188 145.98 20.6316 144.977 20.6316ZM94.7489 18.8161C94.7489 19.8187 95.5617 20.6316 96.5644 20.6316C97.5671 20.6316 98.3799 19.8187 98.3799 18.8161C98.3799 17.8134 97.5671 17.0006 96.5644 17.0006C95.5617 17.0006 94.7489 17.8134 94.7489 18.8161ZM72.3574 20.6316C71.3547 20.6316 70.5419 19.8187 70.5419 18.8161C70.5419 17.8134 71.3547 17.0006 72.3574 17.0006C73.36 17.0006 74.1729 17.8134 74.1729 18.8161C74.1729 19.8187 73.36 20.6316 72.3574 20.6316ZM167.369 18.8161C167.369 19.8188 168.182 20.6316 169.185 20.6316C170.187 20.6316 171 19.8188 171 18.8161C171 17.8134 170.187 17.0006 169.185 17.0006C168.182 17.0006 167.369 17.8134 167.369 18.8161ZM120.77 20.6316C119.768 20.6316 118.955 19.8188 118.955 18.8161C118.955 17.8134 119.768 17.0006 120.77 17.0006C121.773 17.0006 122.586 17.8134 122.586 18.8161C122.586 19.8188 121.773 20.6316 120.77 20.6316ZM46.3358 320.188C46.3358 321.191 47.1486 322.003 48.1513 322.003C49.154 322.003 49.9668 321.191 49.9668 320.188C49.9668 319.185 49.154 318.372 48.1513 318.372C47.1486 318.372 46.3358 319.185 46.3358 320.188ZM23.9443 322.003C22.9416 322.003 22.1288 321.19 22.1288 320.188C22.1288 319.185 22.9416 318.372 23.9443 318.372C24.9469 318.372 25.7598 319.185 25.7598 320.188C25.7598 321.19 24.9469 322.003 23.9443 322.003ZM143.162 320.188C143.162 321.191 143.975 322.003 144.977 322.003C145.98 322.003 146.793 321.191 146.793 320.188C146.793 319.185 145.98 318.372 144.977 318.372C143.975 318.372 143.162 319.185 143.162 320.188ZM96.5644 322.003C95.5617 322.003 94.7489 321.191 94.7489 320.188C94.7489 319.185 95.5617 318.372 96.5644 318.372C97.5671 318.372 98.3799 319.185 98.3799 320.188C98.3799 321.191 97.5671 322.003 96.5644 322.003ZM70.5419 320.188C70.5419 321.191 71.3547 322.003 72.3574 322.003C73.36 322.003 74.1729 321.191 74.1729 320.188C74.1729 319.185 73.36 318.372 72.3574 318.372C71.3547 318.372 70.5419 319.185 70.5419 320.188ZM169.184 322.003C168.181 322.003 167.368 321.191 167.368 320.188C167.368 319.185 168.181 318.372 169.184 318.372C170.186 318.372 170.999 319.185 170.999 320.188C170.999 321.191 170.186 322.003 169.184 322.003ZM118.955 320.188C118.955 321.191 119.768 322.003 120.77 322.003C121.773 322.003 122.586 321.191 122.586 320.188C122.586 319.185 121.773 318.372 120.77 318.372C119.768 318.372 118.955 319.185 118.955 320.188ZM48.1513 135.613C47.1486 135.613 46.3358 134.8 46.3358 133.798C46.3358 132.795 47.1486 131.982 48.1513 131.982C49.154 131.982 49.9668 132.795 49.9668 133.798C49.9668 134.8 49.154 135.613 48.1513 135.613ZM22.1288 133.797C22.1288 134.8 22.9416 135.613 23.9443 135.613C24.9469 135.613 25.7598 134.8 25.7598 133.797C25.7598 132.795 24.9469 131.982 23.9443 131.982C22.9416 131.982 22.1288 132.795 22.1288 133.797ZM144.977 135.613C143.975 135.613 143.162 134.8 143.162 133.798C143.162 132.795 143.975 131.982 144.977 131.982C145.98 131.982 146.793 132.795 146.793 133.798C146.793 134.8 145.98 135.613 144.977 135.613ZM94.7489 133.798C94.7489 134.8 95.5617 135.613 96.5644 135.613C97.5671 135.613 98.3799 134.8 98.3799 133.798C98.3799 132.795 97.5671 131.982 96.5644 131.982C95.5617 131.982 94.7489 132.795 94.7489 133.798ZM72.3574 135.613C71.3547 135.613 70.5419 134.8 70.5419 133.798C70.5419 132.795 71.3547 131.982 72.3574 131.982C73.36 131.982 74.1729 132.795 74.1729 133.798C74.1729 134.8 73.36 135.613 72.3574 135.613ZM167.368 133.798C167.368 134.8 168.181 135.613 169.184 135.613C170.186 135.613 170.999 134.8 170.999 133.798C170.999 132.795 170.186 131.982 169.184 131.982C168.181 131.982 167.368 132.795 167.368 133.798ZM120.77 135.613C119.768 135.613 118.955 134.8 118.955 133.798C118.955 132.795 119.768 131.982 120.77 131.982C121.773 131.982 122.586 132.795 122.586 133.798C122.586 134.8 121.773 135.613 120.77 135.613ZM46.3358 228.204C46.3358 229.206 47.1486 230.019 48.1513 230.019C49.154 230.019 49.9668 229.206 49.9668 228.204C49.9668 227.201 49.154 226.388 48.1513 226.388C47.1486 226.388 46.3358 227.201 46.3358 228.204ZM23.9452 230.018C22.9426 230.018 22.1298 229.205 22.1298 228.203C22.1298 227.2 22.9426 226.387 23.9452 226.387C24.9479 226.387 25.7607 227.2 25.7607 228.203C25.7607 229.205 24.9479 230.018 23.9452 230.018ZM143.162 228.204C143.162 229.206 143.975 230.019 144.977 230.019C145.98 230.019 146.793 229.206 146.793 228.204C146.793 227.201 145.98 226.388 144.977 226.388C143.975 226.388 143.162 227.201 143.162 228.204ZM96.5644 230.019C95.5617 230.019 94.7489 229.206 94.7489 228.204C94.7489 227.201 95.5617 226.388 96.5644 226.388C97.5671 226.388 98.3799 227.201 98.3799 228.204C98.3799 229.206 97.5671 230.019 96.5644 230.019ZM70.5419 228.204C70.5419 229.206 71.3547 230.019 72.3574 230.019C73.36 230.019 74.1729 229.206 74.1729 228.204C74.1729 227.201 73.36 226.388 72.3574 226.388C71.3547 226.388 70.5419 227.201 70.5419 228.204ZM169.185 230.019C168.182 230.019 167.369 229.206 167.369 228.204C167.369 227.201 168.182 226.388 169.185 226.388C170.187 226.388 171 227.201 171 228.204C171 229.206 170.187 230.019 169.185 230.019ZM118.955 228.204C118.955 229.206 119.768 230.019 120.77 230.019C121.773 230.019 122.586 229.206 122.586 228.204C122.586 227.201 121.773 226.388 120.77 226.388C119.768 226.388 118.955 227.201 118.955 228.204ZM48.1513 43.6279C47.1486 43.6279 46.3358 42.8151 46.3358 41.8124C46.3358 40.8097 47.1486 39.9969 48.1513 39.9969C49.154 39.9969 49.9668 40.8097 49.9668 41.8124C49.9668 42.8151 49.154 43.6279 48.1513 43.6279ZM22.1288 41.8117C22.1288 42.8143 22.9416 43.6272 23.9443 43.6272C24.9469 43.6272 25.7598 42.8143 25.7598 41.8117C25.7598 40.809 24.9469 39.9962 23.9443 39.9962C22.9416 39.9962 22.1288 40.809 22.1288 41.8117ZM144.977 43.6279C143.975 43.6279 143.162 42.8151 143.162 41.8124C143.162 40.8098 143.975 39.9969 144.977 39.9969C145.98 39.9969 146.793 40.8098 146.793 41.8124C146.793 42.8151 145.98 43.6279 144.977 43.6279ZM94.7489 41.8124C94.7489 42.8151 95.5617 43.6279 96.5644 43.6279C97.5671 43.6279 98.3799 42.8151 98.3799 41.8124C98.3799 40.8097 97.5671 39.9969 96.5644 39.9969C95.5617 39.9969 94.7489 40.8097 94.7489 41.8124ZM72.3574 43.6279C71.3547 43.6279 70.5419 42.8151 70.5419 41.8124C70.5419 40.8097 71.3547 39.9969 72.3574 39.9969C73.36 39.9969 74.1729 40.8097 74.1729 41.8124C74.1729 42.8151 73.36 43.6279 72.3574 43.6279ZM167.369 41.8124C167.369 42.8151 168.182 43.6279 169.185 43.6279C170.187 43.6279 171 42.8151 171 41.8124C171 40.8098 170.187 39.9969 169.185 39.9969C168.182 39.9969 167.369 40.8098 167.369 41.8124ZM120.77 43.6279C119.768 43.6279 118.955 42.8151 118.955 41.8124C118.955 40.8097 119.768 39.9969 120.77 39.9969C121.773 39.9969 122.586 40.8097 122.586 41.8124C122.586 42.8151 121.773 43.6279 120.77 43.6279ZM46.3358 274.196C46.3358 275.199 47.1486 276.012 48.1513 276.012C49.154 276.012 49.9668 275.199 49.9668 274.196C49.9668 273.194 49.154 272.381 48.1513 272.381C47.1486 272.381 46.3358 273.194 46.3358 274.196ZM23.9443 276.011C22.9416 276.011 22.1288 275.198 22.1288 274.196C22.1288 273.193 22.9416 272.38 23.9443 272.38C24.947 272.38 25.7598 273.193 25.7598 274.196C25.7598 275.198 24.947 276.011 23.9443 276.011ZM143.162 274.196C143.162 275.199 143.975 276.012 144.977 276.012C145.98 276.012 146.793 275.199 146.793 274.196C146.793 273.194 145.98 272.381 144.977 272.381C143.975 272.381 143.162 273.194 143.162 274.196ZM96.5644 276.012C95.5617 276.012 94.7489 275.199 94.7489 274.196C94.7489 273.194 95.5617 272.381 96.5644 272.381C97.5671 272.381 98.3799 273.194 98.3799 274.196C98.3799 275.199 97.5671 276.012 96.5644 276.012ZM70.5419 274.196C70.5419 275.199 71.3547 276.012 72.3574 276.012C73.36 276.012 74.1729 275.199 74.1729 274.196C74.1729 273.194 73.36 272.381 72.3574 272.381C71.3547 272.381 70.5419 273.194 70.5419 274.196ZM169.184 276.012C168.181 276.012 167.368 275.199 167.368 274.196C167.368 273.194 168.181 272.381 169.184 272.381C170.186 272.381 170.999 273.194 170.999 274.196C170.999 275.199 170.186 276.012 169.184 276.012ZM118.955 274.196C118.955 275.199 119.768 276.012 120.77 276.012C121.773 276.012 122.586 275.199 122.586 274.196C122.586 273.194 121.773 272.381 120.77 272.381C119.768 272.381 118.955 273.194 118.955 274.196ZM48.1513 89.6206C47.1486 89.6206 46.3358 88.8078 46.3358 87.8051C46.3358 86.8024 47.1486 85.9896 48.1513 85.9896C49.154 85.9896 49.9668 86.8024 49.9668 87.8051C49.9668 88.8078 49.154 89.6206 48.1513 89.6206ZM22.1288 87.8053C22.1288 88.808 22.9416 89.6208 23.9443 89.6208C24.947 89.6208 25.7598 88.808 25.7598 87.8053C25.7598 86.8027 24.947 85.9899 23.9443 85.9899C22.9416 85.9899 22.1288 86.8027 22.1288 87.8053ZM144.977 89.6206C143.975 89.6206 143.162 88.8078 143.162 87.8051C143.162 86.8024 143.975 85.9896 144.977 85.9896C145.98 85.9896 146.793 86.8024 146.793 87.8051C146.793 88.8078 145.98 89.6206 144.977 89.6206ZM94.7489 87.8051C94.7489 88.8078 95.5617 89.6206 96.5644 89.6206C97.5671 89.6206 98.3799 88.8078 98.3799 87.8051C98.3799 86.8024 97.5671 85.9896 96.5644 85.9896C95.5617 85.9896 94.7489 86.8024 94.7489 87.8051ZM72.3574 89.6206C71.3547 89.6206 70.5419 88.8078 70.5419 87.8051C70.5419 86.8024 71.3547 85.9896 72.3574 85.9896C73.36 85.9896 74.1729 86.8024 74.1729 87.8051C74.1729 88.8078 73.36 89.6206 72.3574 89.6206ZM167.369 87.8051C167.369 88.8078 168.182 89.6206 169.185 89.6206C170.187 89.6206 171 88.8078 171 87.8051C171 86.8024 170.187 85.9896 169.185 85.9896C168.182 85.9896 167.369 86.8024 167.369 87.8051ZM120.77 89.6206C119.768 89.6206 118.955 88.8078 118.955 87.8051C118.955 86.8024 119.768 85.9896 120.77 85.9896C121.773 85.9896 122.586 86.8024 122.586 87.8051C122.586 88.8078 121.773 89.6206 120.77 89.6206ZM46.3358 182.211C46.3358 183.214 47.1486 184.026 48.1513 184.026C49.154 184.026 49.9668 183.214 49.9668 182.211C49.9668 181.208 49.154 180.395 48.1513 180.395C47.1486 180.395 46.3358 181.208 46.3358 182.211ZM23.9443 184.025C22.9416 184.025 22.1288 183.213 22.1288 182.21C22.1288 181.207 22.9416 180.394 23.9443 180.394C24.9469 180.394 25.7598 181.207 25.7598 182.21C25.7598 183.213 24.9469 184.025 23.9443 184.025ZM143.162 182.211C143.162 183.214 143.975 184.026 144.977 184.026C145.98 184.026 146.793 183.214 146.793 182.211C146.793 181.208 145.98 180.395 144.977 180.395C143.975 180.395 143.162 181.208 143.162 182.211ZM96.5644 184.026C95.5617 184.026 94.7489 183.214 94.7489 182.211C94.7489 181.208 95.5617 180.395 96.5644 180.395C97.5671 180.395 98.3799 181.208 98.3799 182.211C98.3799 183.214 97.5671 184.026 96.5644 184.026ZM70.5419 182.211C70.5419 183.214 71.3547 184.026 72.3574 184.026C73.36 184.026 74.1729 183.214 74.1729 182.211C74.1729 181.208 73.36 180.395 72.3574 180.395C71.3547 180.395 70.5419 181.208 70.5419 182.211ZM169.184 184.026C168.181 184.026 167.368 183.214 167.368 182.211C167.368 181.208 168.181 180.395 169.184 180.395C170.186 180.395 170.999 181.208 170.999 182.211C170.999 183.214 170.186 184.026 169.184 184.026ZM118.955 182.211C118.955 183.214 119.768 184.026 120.77 184.026C121.773 184.026 122.586 183.214 122.586 182.211C122.586 181.208 121.773 180.395 120.77 180.395C119.768 180.395 118.955 181.208 118.955 182.211Z" stroke="none" fill="currentColor" />
    </svg>
  </defs>
</svg>
