<svg width="432" height="78" viewBox="0 0 432 78" fill="none" xmlns="http://www.w3.org/2000/svg">
<path d="M38.9387 35.6791C38.9387 34.2658 38.8934 32.928 38.8934 31.7566C38.8934 24.3046 35.3186 20.5787 32.3182 18.7648C29.2526 17.0635 25.7946 16.1957 22.289 16.2481C14.8522 16.2481 9.37282 18.3415 5.98694 22.4606C4.03468 24.9018 2.85571 27.8702 2.60106 30.9857C2.5935 31.0661 2.5935 31.1471 2.60106 31.2275C2.6941 32.223 3.1588 33.1469 3.90258 33.8149C4.64634 34.4831 5.61454 34.8465 6.61424 34.8326C7.55884 34.9289 8.50435 34.6586 9.25542 34.0778C10.0065 33.4969 10.5058 32.6497 10.6501 31.7112C11.5117 27.7057 13.4238 23.9947 21.5937 23.9947C25.9243 23.9947 28.7509 24.8866 30.2322 26.7231C30.7403 27.2717 31.1262 27.9219 31.3645 28.6305C31.603 29.3393 31.6885 30.0904 31.6154 30.8345C31.6154 32.195 31.1014 33.8576 27.0807 34.7419C24.4733 35.3088 21.7298 35.6261 19.077 35.9285L17.8073 36.0797C2.76732 37.8558 0.5 45.7914 0.5 50.3563C0.5 58.6395 10.4611 63.3255 17.6561 63.5521C18.0114 63.5521 18.4647 63.5521 18.9863 63.5521C21.7075 63.6118 24.414 63.1367 26.9522 62.154L27.1714 62.0633C29.6588 61.1154 31.9123 59.6414 33.7776 57.7422C35.6428 55.8429 37.076 53.5633 37.979 51.0591C39.1504 47.9076 39.0447 41.4079 38.9387 35.6791ZM31.2903 44.106C31.2903 53.5985 22.1757 55.6769 18.6614 55.6769C13.8697 55.6769 8.70774 53.13 8.70774 49.0034C8.70774 44.5594 12.7058 43.1613 21.1101 41.8765C23.2942 41.544 26.8539 40.9166 29.2119 40.4632C29.926 40.3142 30.6225 40.0914 31.2903 39.7981V44.106Z" fill="#1E2430"/>
<path d="M46.2095 20.8962C46.2095 19.0446 47.1316 18.1149 48.9908 18.1149H50.9332C52.7848 18.1149 53.7144 19.0446 53.7144 20.4805V23.0048C53.7138 23.7636 53.6583 24.5214 53.5481 25.2721H53.7144C53.7144 25.2721 57.3421 17.0872 68.0741 17.0872C79.5469 17.0872 86.8022 26.1943 86.8022 39.4429C86.8022 53.0469 78.6173 61.7913 67.4846 61.7913C64.7955 61.8737 62.1358 61.2115 59.7993 59.8779C57.4627 58.5442 55.54 56.5909 54.2434 54.2335H54.0772C54.2512 55.4627 54.3346 56.703 54.3265 57.9444V74.8889C54.3265 76.7481 53.3969 77.6777 51.6284 77.6777H48.9908C47.1316 77.6777 46.2095 76.7481 46.2095 74.8889V20.8962ZM66.1998 54.7247C72.9489 54.7247 78.5114 49.2378 78.5114 39.5412C78.5114 30.2603 73.5384 24.2746 66.419 24.2746C60.0403 24.2519 54.1603 28.7413 54.1603 39.6243C54.1603 47.22 58.3549 54.7247 66.1998 54.7247Z" fill="#1E2430"/>
<path d="M94.2163 20.8962C94.2163 19.0446 95.1385 18.1149 96.9977 18.1149H98.94C100.792 18.1149 101.721 19.0446 101.721 20.4805V23.0048C101.721 23.7636 101.665 24.5214 101.555 25.2721H101.721C101.721 25.2721 105.349 17.0872 116.081 17.0872C127.554 17.0872 134.809 26.1943 134.809 39.4429C134.809 53.0469 126.632 61.7913 115.491 61.7913C112.802 61.8737 110.143 61.2115 107.806 59.8779C105.47 58.5442 103.547 56.5909 102.25 54.2335H102.084C102.258 55.4627 102.341 56.703 102.333 57.9444V74.8889C102.333 76.7481 101.404 77.6777 99.6352 77.6777H97.0204C95.1611 77.6777 94.239 76.7481 94.239 74.8889L94.2163 20.8962ZM114.207 54.7247C120.956 54.7247 126.518 49.2378 126.518 39.5412C126.518 30.2603 121.545 24.2746 114.426 24.2746C108.017 24.2746 102.114 28.7413 102.114 39.6243C102.152 47.22 106.369 54.7247 114.214 54.7247H114.207Z" fill="#1E2430"/>
<path d="M143.755 25.2041H141.072C140.696 25.2446 140.315 25.2004 139.959 25.0746C139.602 24.9489 139.278 24.7446 139.01 24.4772C138.743 24.2097 138.539 23.8856 138.413 23.5288C138.287 23.1719 138.243 22.7915 138.283 22.4152V21.3194C138.244 20.9439 138.289 20.5642 138.415 20.2084C138.542 19.8525 138.746 19.5295 139.013 19.2627C139.281 18.9961 139.604 18.7927 139.961 18.6672C140.317 18.5419 140.697 18.4978 141.072 18.5382H143.77V16.5126C143.755 3.01451 154.804 0.822754 159.21 0.822754H160.223C162.06 0.822754 162.989 1.8355 162.989 3.60401V5.20625C162.989 7.06548 161.985 7.82125 160.043 7.99508C156.92 8.16135 151.94 8.91712 151.94 16.8528V18.5382H159.279C159.654 18.4978 160.034 18.5419 160.391 18.6672C160.747 18.7927 161.069 18.9961 161.337 19.2627C161.605 19.5295 161.809 19.8525 161.936 20.2084C162.061 20.5642 162.108 20.9439 162.068 21.3194V22.4152C162.108 22.7915 162.064 23.1719 161.939 23.5288C161.812 23.8856 161.608 24.2097 161.34 24.4772C161.074 24.7446 160.748 24.9489 160.392 25.0746C160.036 25.2004 159.655 25.2446 159.279 25.2041H151.94V58.0123C151.94 59.8716 151.018 60.8012 149.159 60.8012H146.544C144.776 60.8012 143.763 59.8716 143.763 58.0123L143.755 25.2041Z" fill="#1E2430"/>
<path d="M186.283 17.1023C199.025 17.1023 209.312 26.4664 209.312 39.3751C209.312 52.2837 199.025 61.8065 186.283 61.8065C173.54 61.8065 163.345 52.3592 163.345 39.3675C163.345 26.3757 173.571 17.1023 186.283 17.1023ZM186.283 54.7248C194.384 54.7248 200.959 48.3158 200.959 39.3751C200.959 30.4342 194.384 24.1914 186.283 24.1914C178.181 24.1914 171.606 30.5173 171.606 39.3675C171.606 48.2177 178.271 54.7248 186.283 54.7248Z" fill="#1E2430"/>
<path d="M216.418 4.02687C216.418 2.17773 217.348 1.25064 219.207 1.24561H221.821C223.59 1.24561 224.603 2.17521 224.603 4.02687V48.1415C224.603 52.9559 226.711 53.6285 228.48 53.7948C228.787 53.803 229.09 53.8738 229.371 54.0031C229.649 54.1323 229.9 54.3171 230.106 54.5463C230.311 54.7754 230.469 55.044 230.568 55.3359C230.666 55.6277 230.704 55.9364 230.679 56.2435V58.2615C230.679 60.03 229.924 61.1258 227.807 61.1258C223.273 61.1258 216.418 59.8636 216.418 49.1468V4.02687Z" fill="#1E2430"/>
<path d="M238.033 20.8957C238.033 19.0441 239.045 18.1145 240.815 18.1145H243.429C245.288 18.1145 246.21 19.0441 246.21 20.8957V58.0119C246.21 59.8711 245.288 60.8007 243.429 60.8007H240.837C239.068 60.8007 238.055 59.8711 238.055 58.0119L238.033 20.8957Z" fill="#1E2430"/>
<path d="M276.259 17.1023C289.002 17.1023 299.288 26.4664 299.288 39.3751C299.288 52.2837 289.002 61.8065 276.259 61.8065C263.518 61.8065 253.315 52.3592 253.315 39.3675C253.315 26.3757 263.51 17.1023 276.259 17.1023ZM276.259 54.7248C284.361 54.7248 290.937 48.3158 290.937 39.3751C290.937 30.4342 284.361 24.1914 276.259 24.1914C268.158 24.1914 261.583 30.5173 261.583 39.3675C261.583 48.2177 268.249 54.7248 276.259 54.7248Z" fill="#1E2430"/>
<path d="M316.641 17.276H323.36C324.149 17.24 324.937 17.3663 325.675 17.6472C326.413 17.9279 327.087 18.3572 327.653 18.9085C328.199 19.4801 328.626 20.1563 328.905 20.8966C329.184 21.6369 329.311 22.4259 329.277 23.2164C329.314 24.0118 329.188 24.8063 328.909 25.5518C328.629 26.2975 328.202 26.9786 327.653 27.5546C327.087 28.1059 326.413 28.5352 325.675 28.816C324.937 29.0968 324.149 29.2231 323.36 29.187H319.037V34.213C319.037 34.5985 318.84 34.7874 318.44 34.7874H316.641C316.24 34.7874 316.036 34.5985 316.036 34.213V17.8504C316.036 17.4498 316.24 17.276 316.641 17.276ZM323.012 26.3907C323.436 26.4157 323.861 26.3509 324.258 26.2006C324.657 26.0502 325.018 25.8176 325.32 25.5182C325.622 25.2186 325.857 24.8587 326.011 24.4621C326.163 24.0654 326.23 23.6411 326.209 23.2164C326.226 22.7974 326.156 22.3793 326.002 21.989C325.849 21.5986 325.615 21.2445 325.318 20.9491C325.015 20.6636 324.658 20.4405 324.27 20.2926C323.88 20.1449 323.465 20.0752 323.05 20.0875H319.075V26.4058L323.012 26.3907Z" fill="#1E2430"/>
<path d="M333.681 34.2131V26.2171C333.626 25.7182 333.683 25.2135 333.85 24.74C334.016 24.2664 334.286 23.8364 334.641 23.4816C334.996 23.1268 335.426 22.8562 335.899 22.69C336.372 22.5238 336.878 22.4661 337.376 22.5213H339.999C340.399 22.5213 340.596 22.7102 340.596 23.0957V24.5164C340.609 24.5981 340.602 24.6815 340.577 24.7601C340.551 24.8387 340.508 24.9102 340.45 24.969C340.392 25.0279 340.32 25.0722 340.243 25.0986C340.164 25.125 340.081 25.1326 339.999 25.1211H337.731C337.557 25.1088 337.382 25.1319 337.217 25.1891C337.053 25.2463 336.9 25.3363 336.772 25.4536C336.655 25.5791 336.567 25.727 336.509 25.8882C336.452 26.0492 336.429 26.2203 336.44 26.3909V34.2131C336.451 34.2912 336.444 34.3709 336.419 34.4458C336.393 34.5206 336.352 34.5888 336.296 34.6446C336.24 34.7003 336.172 34.7423 336.098 34.7671C336.023 34.792 335.943 34.7989 335.865 34.7875H334.24C334.162 34.7964 334.085 34.7875 334.012 34.7615C333.94 34.7355 333.874 34.6931 333.819 34.6376C333.765 34.5823 333.724 34.5151 333.7 34.4414C333.676 34.3679 333.669 34.2897 333.681 34.2131Z" fill="#1E2430"/>
<path d="M346.214 23.972C347.482 22.8285 349.13 22.1956 350.837 22.1956C352.544 22.1956 354.191 22.8285 355.458 23.972C356.053 24.5907 356.516 25.3236 356.82 26.1263C357.124 26.929 357.262 27.7851 357.226 28.6426C357.255 29.4992 357.113 30.353 356.805 31.1532C356.498 31.9532 356.033 32.6833 355.437 33.2998C354.841 33.9161 354.127 34.4064 353.338 34.7412C352.55 35.076 351.702 35.2486 350.844 35.2486C349.986 35.2486 349.138 35.076 348.349 34.7412C347.561 34.4064 346.847 33.9161 346.251 33.2998C345.655 32.6833 345.19 31.9532 344.883 31.1532C344.575 30.353 344.432 29.4992 344.462 28.6426C344.42 27.7856 344.554 26.9293 344.855 26.126C345.156 25.3227 345.62 24.5896 346.214 23.972ZM347.258 28.6426C347.235 29.1437 347.311 29.6444 347.485 30.1154C347.656 30.5864 347.921 31.0184 348.264 31.386C348.945 32.0678 349.872 32.4506 350.837 32.4506C351.802 32.4506 352.727 32.0678 353.41 31.386C354.074 30.6243 354.42 29.637 354.378 28.6275C354.434 27.6111 354.102 26.6112 353.448 25.8312C352.762 25.1485 351.834 24.7654 350.866 24.7654C349.899 24.7654 348.971 25.1485 348.286 25.8312C347.587 26.5973 347.218 27.6069 347.258 28.6426Z" fill="#1E2430"/>
<path d="M362.344 39.1105V23.0955C362.332 23.0175 362.339 22.9378 362.364 22.863C362.39 22.788 362.43 22.72 362.487 22.6641C362.543 22.6083 362.611 22.5663 362.685 22.5415C362.76 22.5168 362.84 22.5097 362.918 22.5211H364.211C364.36 22.5042 364.509 22.5472 364.628 22.6407C364.745 22.7342 364.821 22.8707 364.838 23.02L365.109 24.5315H365.163C365.425 23.8167 365.935 23.2189 366.6 22.8462C367.326 22.4108 368.162 22.1883 369.009 22.2038C369.781 22.176 370.548 22.3211 371.256 22.6284C371.963 22.9358 372.593 23.3975 373.098 23.9798C374.165 25.2924 374.703 26.9547 374.61 28.6429C374.707 30.3363 374.167 32.0049 373.098 33.3212C372.594 33.9 371.966 34.3586 371.262 34.6633C370.556 34.9681 369.793 35.1112 369.025 35.0821C368.178 35.096 367.345 34.8764 366.614 34.4473C365.954 34.0792 365.446 33.4904 365.178 32.7846H365.125V39.1331C365.136 39.2112 365.129 39.2909 365.105 39.3658C365.08 39.4408 365.038 39.5088 364.983 39.5646C364.926 39.6203 364.859 39.6623 364.784 39.6871C364.708 39.712 364.629 39.7189 364.55 39.7075H362.933C362.852 39.7227 362.768 39.7177 362.69 39.693C362.611 39.6682 362.539 39.6244 362.48 39.5656C362.422 39.5065 362.38 39.4343 362.356 39.355C362.332 39.2757 362.328 39.1917 362.344 39.1105ZM366.039 31.462C366.326 31.8189 366.691 32.1044 367.108 32.2958C367.524 32.4874 367.978 32.5797 368.435 32.5654C368.893 32.5745 369.345 32.4799 369.76 32.2888C370.174 32.0977 370.541 31.815 370.831 31.462C371.472 30.6659 371.8 29.6636 371.753 28.6429C371.801 27.6199 371.473 26.6147 370.831 25.8163C370.535 25.4648 370.163 25.1854 369.742 24.9994C369.322 24.8135 368.864 24.7259 368.405 24.7432C367.949 24.7281 367.494 24.8168 367.077 25.0028C366.659 25.1887 366.288 25.4669 365.994 25.8163C365.357 26.617 365.033 27.6212 365.08 28.6429C365.04 29.669 365.383 30.6731 366.039 31.462Z" fill="#1E2430"/>
<path d="M379.258 28.6428C379.177 26.9276 379.78 25.2506 380.935 23.9797C381.503 23.3933 382.189 22.9333 382.946 22.6299C383.704 22.3265 384.518 22.1864 385.334 22.2186C386.127 22.1868 386.918 22.324 387.654 22.6211C388.39 22.9182 389.055 23.3684 389.604 23.9418C390.717 25.183 391.3 26.8106 391.228 28.4765V28.9527C391.241 29.0319 391.234 29.1128 391.21 29.1892C391.186 29.2655 391.145 29.3354 391.089 29.3931C391.034 29.4509 390.965 29.4951 390.89 29.5222C390.814 29.5493 390.734 29.5588 390.655 29.5498H381.932C382.038 30.4199 382.451 31.224 383.097 31.817C383.769 32.3848 384.63 32.679 385.507 32.6409C386.092 32.689 386.676 32.5731 387.197 32.3059C387.719 32.0389 388.154 31.6312 388.455 31.1293C388.514 31.0445 388.592 30.9739 388.682 30.9229C388.773 30.8719 388.873 30.8416 388.976 30.8346C389.062 30.8356 389.147 30.8508 389.226 30.88L390.375 31.356C390.647 31.4694 390.775 31.6205 390.775 31.802C390.775 31.9106 390.741 32.0163 390.678 32.1042C390.189 33.0081 389.452 33.7529 388.554 34.2506C387.352 34.9052 385.976 35.1648 384.62 34.9924C383.263 34.8201 381.994 34.2247 380.996 33.2909C380.411 32.671 379.956 31.9406 379.658 31.1424C379.359 30.3442 379.222 29.4943 379.258 28.6428ZM381.91 27.887H388.576C388.566 26.9997 388.221 26.1489 387.609 25.5064C387.295 25.2127 386.924 24.9851 386.521 24.8371C386.117 24.6892 385.687 24.6237 385.258 24.6448C384.842 24.6285 384.427 24.6965 384.037 24.8445C383.648 24.9926 383.292 25.2176 382.992 25.5064C382.375 26.1474 381.993 26.9787 381.91 27.8643V27.887Z" fill="#1E2430"/>
<path d="M396.149 34.2131V26.2171C396.094 25.7182 396.151 25.2135 396.318 24.74C396.484 24.2664 396.754 23.8364 397.109 23.4816C397.464 23.1268 397.894 22.8562 398.367 22.69C398.842 22.5238 399.346 22.4661 399.844 22.5213H402.474C402.867 22.5213 403.071 22.7102 403.071 23.0957V24.5164C403.083 24.5978 403.076 24.6807 403.049 24.7584C403.023 24.8363 402.98 24.9071 402.922 24.9656C402.864 25.0239 402.794 25.0683 402.716 25.0953C402.639 25.1222 402.556 25.1311 402.474 25.1211H400.208C400.033 25.1088 399.859 25.1319 399.694 25.1891C399.529 25.2463 399.377 25.3363 399.247 25.4536C399.13 25.5786 399.039 25.726 398.981 25.8872C398.922 26.0483 398.898 26.2197 398.908 26.3909V34.2131C398.919 34.2912 398.912 34.3709 398.887 34.4458C398.863 34.5206 398.82 34.5888 398.764 34.6446C398.709 34.7003 398.64 34.7423 398.566 34.7671C398.491 34.792 398.411 34.7989 398.333 34.7875H396.708C396.632 34.7964 396.553 34.7875 396.48 34.7615C396.408 34.7355 396.342 34.6931 396.287 34.6376C396.233 34.5823 396.192 34.5151 396.168 34.4414C396.144 34.3679 396.137 34.2897 396.149 34.2131Z" fill="#1E2430"/>
<path d="M407.426 19.248C407.415 19.1698 407.421 19.0903 407.446 19.0153C407.471 18.9404 407.514 18.8724 407.569 18.8166C407.625 18.7607 407.693 18.7187 407.767 18.6939C407.842 18.6691 407.922 18.6621 408 18.6736H409.625C409.704 18.6621 409.783 18.6691 409.857 18.6939C409.932 18.7187 410.001 18.7607 410.056 18.8166C410.112 18.8724 410.155 18.9404 410.179 19.0153C410.204 19.0903 410.211 19.1698 410.2 19.248V22.5205H413.155C413.555 22.5205 413.759 22.7094 413.759 23.0949V24.3645C413.769 24.4451 413.759 24.5268 413.731 24.6031C413.704 24.6793 413.659 24.7484 413.6 24.8046C413.542 24.8608 413.472 24.9029 413.394 24.9275C413.317 24.952 413.235 24.9586 413.155 24.9465H410.207V31.0532C410.198 31.2255 410.229 31.3973 410.298 31.5559C410.366 31.7144 410.469 31.8552 410.6 31.9676C410.893 32.2031 411.262 32.3217 411.635 32.3002H413.306C413.384 32.2881 413.466 32.2944 413.542 32.3186C413.618 32.3429 413.689 32.3843 413.746 32.4399C413.804 32.4954 413.848 32.5636 413.876 32.6389C413.903 32.7143 413.913 32.795 413.903 32.8746V34.2274C413.903 34.6129 413.707 34.8018 413.306 34.8018H411.129C410.635 34.8318 410.141 34.7629 409.673 34.5994C409.205 34.436 408.776 34.1811 408.408 33.8495C408.07 33.4964 407.81 33.077 407.642 32.6178C407.473 32.1586 407.402 31.6696 407.433 31.1817L407.426 19.248Z" fill="#1E2430"/>
<path d="M418.267 22.5213H420.217C420.366 22.5052 420.514 22.5451 420.635 22.6333C420.755 22.7213 420.838 22.8513 420.867 22.9975L423.966 32.286L427.042 22.9975C427.083 22.8533 427.172 22.7275 427.294 22.6409C427.417 22.5544 427.565 22.5121 427.714 22.5213H429.611C429.982 22.5213 430.164 22.6347 430.164 22.8689C430.159 22.9739 430.134 23.0768 430.087 23.1713L423.989 39.3071C423.948 39.4512 423.859 39.577 423.737 39.6636C423.614 39.7502 423.466 39.7925 423.315 39.7832H421.539C421.463 39.7938 421.386 39.7869 421.313 39.7633C421.239 39.7398 421.173 39.7001 421.117 39.6473C421.053 39.565 421.018 39.464 421.018 39.3601C421.021 39.2743 421.039 39.1898 421.072 39.1106L422.446 35.4073L417.798 23.194C417.753 23.0995 417.728 22.9965 417.724 22.8916C417.724 22.6423 417.905 22.5213 418.267 22.5213Z" fill="#1E2430"/>
<path d="M424.557 62.9321V54.936C424.503 54.4361 424.561 53.9305 424.729 53.4564C424.896 52.9824 425.168 52.552 425.525 52.1972C425.881 51.8424 426.313 51.5722 426.788 51.4066C427.263 51.241 427.768 51.1841 428.268 51.2402H430.898C431.291 51.2402 431.495 51.4291 431.495 51.8146V53.2354C431.506 53.3168 431.498 53.3996 431.473 53.4774C431.446 53.5553 431.402 53.6261 431.345 53.6846C431.287 53.7429 431.216 53.7872 431.139 53.8143C431.061 53.8412 430.98 53.8501 430.898 53.8401H428.63C428.456 53.8278 428.281 53.8509 428.116 53.9081C427.951 53.9653 427.799 54.0553 427.671 54.1726C427.553 54.2975 427.463 54.445 427.404 54.6061C427.346 54.7673 427.32 54.9387 427.33 55.1098V62.9321C427.342 63.0101 427.334 63.0898 427.311 63.1648C427.285 63.2396 427.243 63.3077 427.188 63.3635C427.132 63.4193 427.064 63.4613 426.989 63.4861C426.913 63.511 426.834 63.5179 426.756 63.5065H425.132C425.053 63.5179 424.974 63.511 424.899 63.4861C424.823 63.4613 424.756 63.4193 424.699 63.3635C424.644 63.3077 424.602 63.2396 424.577 63.1648C424.553 63.0898 424.546 63.0101 424.557 62.9321Z" fill="#1E2430"/>
<path d="M316.641 45.9948H319.513C319.658 45.9851 319.803 46.0235 319.925 46.1041C320.046 46.1847 320.137 46.303 320.185 46.4407L325.475 59.886L330.766 46.4407C330.807 46.3026 330.893 46.1826 331.011 46.1012C331.131 46.0197 331.273 45.9823 331.416 45.9948H334.311C334.388 45.9834 334.469 45.9904 334.543 46.0152C334.618 46.04 334.687 46.082 334.742 46.1378C334.798 46.1936 334.841 46.2617 334.865 46.3365C334.89 46.4114 334.897 46.4912 334.886 46.5692V62.9318C334.897 63.0098 334.89 63.0895 334.865 63.1645C334.841 63.2394 334.798 63.3074 334.742 63.3632C334.687 63.419 334.618 63.461 334.543 63.4859C334.469 63.5107 334.388 63.5176 334.311 63.5062H332.49C332.411 63.5176 332.332 63.5107 332.257 63.4859C332.181 63.461 332.114 63.419 332.059 63.3632C332.002 63.3074 331.96 63.2394 331.936 63.1645C331.911 63.0895 331.904 63.0098 331.915 62.9318V50.4388L326.995 63.0301C326.96 63.1731 326.875 63.2993 326.757 63.3863C326.637 63.4733 326.492 63.5157 326.344 63.5062H324.516C324.37 63.517 324.225 63.4749 324.106 63.3874C323.988 63.3001 323.906 63.1732 323.874 63.0301L318.999 50.5371V62.9318C318.999 63.3173 318.802 63.5062 318.402 63.5062H316.641C316.24 63.5062 316.036 63.3173 316.036 62.9318V46.5692C316.036 46.1686 316.24 45.9948 316.641 45.9948Z" fill="#1E2430"/>
<path d="M341.914 52.691C342.414 52.1133 343.038 51.6557 343.739 51.3521C344.441 51.0485 345.201 50.9069 345.965 50.9377C346.816 50.9208 347.654 51.1434 348.385 51.5802C349.04 51.9478 349.544 52.5334 349.813 53.2353H349.858L350.159 51.7237C350.178 51.5744 350.252 51.438 350.371 51.3444C350.488 51.2509 350.638 51.2079 350.788 51.2249H352.057C352.136 51.2135 352.214 51.2204 352.289 51.2452C352.365 51.2701 352.433 51.3121 352.489 51.3679C352.544 51.4237 352.586 51.4917 352.612 51.5666C352.636 51.6416 352.643 51.7211 352.631 51.7993V62.9318C352.643 63.01 352.636 63.0896 352.612 63.1645C352.586 63.2395 352.544 63.3075 352.489 63.3633C352.433 63.419 352.365 63.461 352.289 63.4859C352.214 63.5107 352.136 63.5176 352.057 63.5062H350.788C350.638 63.5233 350.488 63.4803 350.371 63.3868C350.252 63.2933 350.178 63.1568 350.159 63.0075L349.858 61.4959H349.813C349.547 62.2011 349.041 62.79 348.385 63.1586C347.654 63.5927 346.816 63.8127 345.965 63.7934C345.2 63.8239 344.437 63.6822 343.734 63.3786C343.03 63.0752 342.403 62.6178 341.9 62.0401C340.839 60.7274 340.301 59.0696 340.387 57.3845C340.291 55.6841 340.837 54.0093 341.914 52.691ZM343.192 57.3618C343.142 58.3829 343.47 59.3865 344.114 60.1809C344.417 60.5226 344.79 60.796 345.207 60.9833C345.624 61.1707 346.075 61.2674 346.533 61.2674C346.989 61.2674 347.441 61.1707 347.858 60.9833C348.275 60.796 348.647 60.5226 348.951 60.1809C349.586 59.3712 349.909 58.3596 349.858 57.3316C349.909 56.3151 349.586 55.3149 348.951 54.5201C348.655 54.1719 348.285 53.8952 347.868 53.7107C347.449 53.5261 346.996 53.4385 346.54 53.4545C346.082 53.4361 345.624 53.5226 345.204 53.7073C344.783 53.8919 344.411 54.17 344.114 54.5201C343.459 55.3175 343.131 56.3323 343.192 57.3618Z" fill="#1E2430"/>
<path d="M358.214 51.8151C358.202 51.7371 358.209 51.6573 358.234 51.5825C358.259 51.5076 358.302 51.4396 358.357 51.3837C358.413 51.3279 358.481 51.2859 358.555 51.2611C358.63 51.2363 358.71 51.2293 358.788 51.2407H360.088C360.162 51.2324 360.236 51.2387 360.307 51.2593C360.378 51.2799 360.444 51.3144 360.502 51.3607C360.56 51.4072 360.607 51.4645 360.643 51.5296C360.678 51.5945 360.7 51.6659 360.707 51.7396L360.988 53.2512H361.003C361.265 52.5362 361.775 51.9386 362.439 51.5658C363.177 51.1283 364.022 50.9058 364.879 50.9234C365.492 50.8928 366.103 50.9922 366.674 51.2151C367.244 51.4378 367.761 51.7788 368.189 52.2157C369.039 53.1485 369.485 54.3793 369.429 55.6393V62.91C369.442 62.988 369.435 63.0678 369.409 63.1426C369.384 63.2175 369.343 63.2855 369.287 63.3414C369.23 63.3972 369.163 63.4392 369.088 63.464C369.013 63.4888 368.933 63.4958 368.856 63.4844H367.23C367.153 63.4958 367.072 63.4888 366.998 63.464C366.923 63.4392 366.854 63.3972 366.799 63.3414C366.743 63.2855 366.701 63.2175 366.677 63.1426C366.651 63.0678 366.644 62.988 366.656 62.91V56.637C366.698 55.8131 366.429 55.0035 365.901 54.3697C365.658 54.0924 365.358 53.8725 365.02 53.7261C364.684 53.5797 364.317 53.5104 363.95 53.5232C363.543 53.5135 363.137 53.5946 362.765 53.7607C362.392 53.9266 362.061 54.1734 361.796 54.4831C361.241 55.1779 360.96 56.0513 361.003 56.9394V62.9327C361.015 63.0107 361.007 63.0904 360.982 63.1652C360.958 63.2402 360.916 63.3082 360.86 63.3641C360.803 63.4199 360.736 63.4619 360.661 63.4867C360.586 63.5114 360.506 63.5185 360.429 63.5071H358.803C358.726 63.5185 358.645 63.5114 358.571 63.4867C358.496 63.4619 358.427 63.4199 358.372 63.3641C358.316 63.3082 358.274 63.2402 358.25 63.1652C358.224 63.0904 358.217 63.0107 358.228 62.9327L358.214 51.8151Z" fill="#1E2430"/>
<path d="M375.962 52.691C376.46 52.1134 377.083 51.6558 377.783 51.3523C378.483 51.0486 379.243 50.9069 380.005 50.9377C380.859 50.9193 381.7 51.142 382.431 51.5802C383.083 51.9502 383.586 52.5354 383.852 53.2353H383.906L384.2 51.7237C384.218 51.5752 384.296 51.44 384.413 51.3468C384.53 51.2537 384.679 51.2099 384.827 51.2249H386.104C386.183 51.2135 386.262 51.2204 386.337 51.2452C386.413 51.27 386.48 51.3121 386.535 51.3679C386.592 51.4237 386.634 51.4917 386.659 51.5666C386.683 51.6416 386.69 51.7211 386.679 51.7993V62.9318C386.69 63.01 386.683 63.0896 386.659 63.1645C386.634 63.2395 386.592 63.3075 386.535 63.3633C386.48 63.419 386.413 63.461 386.337 63.4859C386.262 63.5107 386.183 63.5176 386.104 63.5062H384.827C384.679 63.5213 384.53 63.4775 384.413 63.3844C384.296 63.2912 384.218 63.1559 384.2 63.0075L383.906 61.4959H383.852C383.587 62.1993 383.084 62.7876 382.431 63.1586C381.697 63.5903 380.858 63.81 380.005 63.7934C379.241 63.8238 378.479 63.682 377.777 63.3785C377.074 63.0749 376.449 62.6176 375.948 62.0401C374.883 60.7295 374.345 59.0702 374.435 57.3845C374.339 55.6841 374.884 54.0093 375.962 52.691ZM377.232 57.3618C377.186 58.3824 377.514 59.3848 378.153 60.1809C378.458 60.5226 378.829 60.796 379.246 60.9833C379.663 61.1706 380.115 61.2674 380.572 61.2674C381.029 61.2674 381.482 61.1706 381.898 60.9833C382.315 60.796 382.687 60.5226 382.99 60.1809C383.628 59.3719 383.952 58.3604 383.906 57.3315C383.955 56.3141 383.63 55.3138 382.99 54.5201C382.696 54.1719 382.325 53.8952 381.907 53.7107C381.49 53.5261 381.036 53.4385 380.58 53.4545C380.121 53.4395 379.666 53.5274 379.246 53.7119C378.827 53.8963 378.453 54.1725 378.153 54.5201C377.503 55.3193 377.174 56.3327 377.232 57.3618Z" fill="#1E2430"/>
<path d="M393.281 63.1588C392.867 63.0112 392.509 62.7352 392.261 62.371C392.015 62.0068 391.89 61.5732 391.905 61.1332C391.897 60.5926 392.071 60.0649 392.402 59.6374C392.733 59.2099 393.201 58.9085 393.728 58.7828C393.154 58.4176 392.691 57.9048 392.385 57.2983C392.078 56.6918 391.942 56.0141 391.988 55.3364C391.953 54.7207 392.061 54.1049 392.306 53.539C392.552 52.9732 392.928 52.473 393.402 52.0791C394.576 51.2451 396.001 50.842 397.438 50.9378C398.317 50.9185 399.193 51.0462 400.031 51.3157C400.117 50.6834 400.438 50.1066 400.928 49.6994C401.42 49.2921 402.046 49.084 402.683 49.1164H403.439C403.517 49.105 403.597 49.1119 403.672 49.1367C403.746 49.1616 403.814 49.2036 403.87 49.2594C403.927 49.3152 403.967 49.3832 403.993 49.4581C404.018 49.5331 404.025 49.6128 404.013 49.6908V50.7035C404.025 50.7827 404.02 50.8637 403.994 50.94C403.97 51.0165 403.929 51.0862 403.873 51.144C403.818 51.2017 403.751 51.2459 403.675 51.2731C403.598 51.3002 403.518 51.3096 403.439 51.3006H402.57C402.318 51.2685 402.062 51.3161 401.838 51.4367C401.614 51.5574 401.434 51.745 401.322 51.9733C401.807 52.3744 402.198 52.8743 402.475 53.4394C402.749 54.0045 402.9 54.6218 402.917 55.25C402.934 55.8782 402.817 56.5029 402.573 57.0821C402.329 57.6614 401.965 58.182 401.504 58.6089C400.331 59.4363 398.908 59.8364 397.476 59.7426C396.735 59.756 395.995 59.6722 395.277 59.4932C394.657 59.6444 394.347 59.9694 394.347 60.4681C394.347 61.0879 394.86 61.3977 395.859 61.3977H399.91C400.989 61.3174 402.06 61.6258 402.932 62.2669C403.283 62.5678 403.56 62.9448 403.742 63.3694C403.924 63.7937 404.007 64.2543 403.983 64.7156C404 65.3228 403.848 65.9228 403.544 66.4486C403.239 66.9743 402.794 67.4053 402.26 67.6935C400.712 68.4628 398.99 68.8145 397.264 68.7136C395.698 68.7939 394.133 68.5362 392.677 67.958C392.218 67.7956 391.819 67.4989 391.532 67.1067C391.246 66.7143 391.083 66.2445 391.067 65.7586C391.042 64.4385 391.78 63.5719 393.281 63.1588ZM397.348 66.4767C398.343 66.5247 399.339 66.3678 400.272 66.0155C400.56 65.9255 400.814 65.7487 400.998 65.5093C401.181 65.27 401.287 64.9796 401.3 64.6779C401.305 64.5111 401.269 64.3456 401.191 64.1974C401.115 64.0492 401.001 63.9232 400.862 63.8313C400.488 63.6072 400.056 63.5019 399.622 63.5291H395.526C394.294 63.5291 393.681 64.0051 393.681 64.9574C393.681 65.9097 394.907 66.4767 397.348 66.4767ZM394.649 55.3364C394.635 55.6448 394.697 55.952 394.829 56.2312C394.96 56.5104 395.159 56.7533 395.405 56.9387C396.032 57.3119 396.749 57.509 397.48 57.509C398.21 57.509 398.926 57.3119 399.555 56.9387C399.801 56.7516 399.998 56.5074 400.131 56.227C400.262 55.9465 400.324 55.6384 400.31 55.3289C400.318 55.0205 400.253 54.7144 400.121 54.4359C399.988 54.1573 399.791 53.9142 399.546 53.7266C398.917 53.3602 398.201 53.1673 397.471 53.1673C396.743 53.1673 396.028 53.3602 395.397 53.7266C395.154 53.9166 394.96 54.1615 394.829 54.4414C394.7 54.7213 394.638 55.0281 394.649 55.3364Z" fill="#1E2430"/>
<path d="M407.569 57.3621C407.488 55.6468 408.091 53.9699 409.246 52.699C409.814 52.1115 410.498 51.6508 411.258 51.3472C412.015 51.0437 412.829 50.9043 413.645 50.9381C414.438 50.9067 415.23 51.044 415.965 51.341C416.701 51.6381 417.366 52.0881 417.916 52.6612C419.028 53.9023 419.611 55.5301 419.54 57.1959V57.672C419.552 57.7511 419.547 57.8321 419.521 57.9085C419.497 57.9849 419.456 58.0547 419.4 58.1124C419.345 58.1702 419.276 58.2144 419.201 58.2416C419.125 58.2686 419.045 58.278 418.966 58.269H410.243C410.349 59.1393 410.762 59.9433 411.408 60.5364C412.08 61.1042 412.941 61.3983 413.818 61.3601C414.403 61.4066 414.987 61.2899 415.507 61.0228C416.028 60.7559 416.463 60.3493 416.766 59.8487C416.825 59.7637 416.904 59.6932 416.994 59.6422C417.085 59.5912 417.185 59.5611 417.287 59.5539C417.373 59.5549 417.458 59.5702 417.537 59.5992L418.686 60.0753C418.951 60.1887 419.086 60.3398 419.086 60.5212C419.086 60.6298 419.052 60.7357 418.989 60.8236C418.5 61.7273 417.763 62.4722 416.865 62.9699C415.93 63.5066 414.868 63.7832 413.789 63.7711C412.952 63.8114 412.115 63.6754 411.335 63.372C410.553 63.0687 409.845 62.6047 409.255 62.0102C408.679 61.3861 408.233 60.6536 407.943 59.8556C407.655 59.0577 407.526 58.2099 407.569 57.3621ZM410.221 56.6063H416.887C416.875 55.7181 416.527 54.8675 415.913 54.2256C415.6 53.9318 415.231 53.7041 414.828 53.556C414.427 53.408 413.998 53.3428 413.569 53.3641C413.153 53.3479 412.738 53.4158 412.348 53.5638C411.959 53.7118 411.603 53.9369 411.303 54.2256C410.686 54.8667 410.304 55.698 410.221 56.5836V56.6063Z" fill="#1E2430"/>
</svg>
